<?xml version='1.0' encoding='UTF-8'?>
<rss xmlns:atom="http://www.w3.org/2005/Atom" xmlns:content="http://purl.org/rss/1.0/modules/content/" version="2.0">
  <channel>
    <title>能解码8M HEVC的最低配电视盒子是什么U？</title>
    <link>https://bbs.saraba1st.com/2b/</link>
    <description>能解码8M HEVC的最低配电视盒子是什么U？</description>
    <docs>http://www.rssboard.org/rss-specification</docs>
    <generator>python-feedgen</generator>
    <lastBuildDate>Thu, 09 Jul 2020 20:29:47 +0000</lastBuildDate>
    <item>
      <title>能解码8M HEVC的最低配电视盒子是什么U？[0-50]</title>
      <link>https://bbs.saraba1st.com/2b/thread-1832499-1-1.html</link>
      <description>能解码8M HEVC的最低配电视盒子是什么U？&#13;
插在电视机上播放本地硬盘里的4K视频
&#13;
X86阵营的mini pc/电脑棒
&#13;
Arm阵营的各种小盒子
&#13;
最低得啥级别的CPU？
&#13;
例如下面这个总码率25M，视频码率8M的片，以流畅播放为目标：
&#13;
General
&#13;
Unique ID                              : 129377315307886829166094992195091775292 (0x61552A2119FC0819B39DACA291D93F3C)
&#13;
Complete name                            : F:\\.mkv
&#13;
Format                                 : Matroska
&#13;
Format version                           : Version 4 / Version 2
&#13;
File size                              : 18.0 GiB
&#13;
Duration                                 : 1 h 42 min
&#13;
Overall bit rate mode                  : Variable
&#13;
Overall bit rate                         : 25.0 Mb/s
&#13;
Encoded date                           : UTC 2018-05-03 10:01:10
&#13;
Writing application                      : mkvmerge v23.0.0 ('The Bride Said No') 64-bit
&#13;
Writing library                        : libebml v1.3.6 + libmatroska v1.4.9
&#13;
Video
&#13;
ID                                       : 1
&#13;
Format                                 : HEVC
&#13;
Format/Info                              : High Efficiency Video Coding
&#13;
Commercial name                        : HDR10
&#13;
Format profile                           : Main 10@L5@Main
&#13;
Codec ID                                 : V_MPEGH/ISO/HEVC
&#13;
Duration                                 : 1 h 42 min
&#13;
Bit rate                                 : 8 122 kb/s
&#13;
Width                                    : 3 840 pixels
&#13;
Height                                 : 2 076 pixels
&#13;
Display aspect ratio                     : 1.85:1
&#13;
Frame rate mode                        : Constant
&#13;
Frame rate                               : 23.976 (24000/1001) FPS
&#13;
Color space                              : YUV
&#13;
Chroma subsampling                     : 4:2:0
&#13;
Bit depth                              : 10 bits
&#13;
Bits/(Pixel*Frame)                     : 0.042
&#13;
Stream size                              : 5.83 GiB (32%)
&#13;
Writing library                        : x265 2.7+2-22c127ff05d5: 10bit+8bit
&#13;
Encoding settings                        : cpuid=1050111 / frame-threads=6 / numa-pools=48,0,0,0 / wpp / no-pmode / no-pme / no-psnr / no-ssim / log-level=2 / input-csp=1 / input-res=3840x2076 / interlace=0 / total-frames=0 / level-idc=0 / high-tier=1 / uhd-bd=0 / ref=5 / no-allow-non-conformance / repeat-headers / annexb / no-aud / no-hrd / info / hash=0 / no-temporal-layers / no-open-gop / min-keyint=1 / keyint=480 / gop-lookahead=0 / bframes=8 / b-adapt=2 / b-pyramid / bframe-bias=0 / rc-lookahead=48 / lookahead-slices=0 / scenecut=40 / radl=0 / no-intra-refresh / ctu=64 / min-cu-size=8 / no-rect / no-amp / max-tu-size=32 / tu-inter-depth=3 / tu-intra-depth=3 / limit-tu=4 / rdoq-level=2 / dynamic-rd=0.00 / no-ssim-rd / signhide / no-tskip / nr-intra=0 / nr-inter=0 / no-constrained-intra / no-strong-intra-smoothing / max-merge=4 / limit-refs=1 / limit-modes / me=3 / subme=4 / merange=57 / temporal-mvp / weightp / weightb / no-analyze-src-pics / deblock=-2:-2 / no-sao / no-sao-non-deblock / rd=6 / no-early-skip / rskip / no-fast-intra / no-tskip-fast / no-cu-lossless / b-intra / no-splitrd-skip / rdpenalty=0 / psy-rd=2.00 / psy-rdoq=1.00 / no-rd-refine / no-lossless / cbqpoffs=-3 / crqpoffs=-3 / rc=crf / crf=15.0 / qcomp=0.70 / qpstep=4 / stats-write=0 / stats-read=0 / ipratio=1.40 / pbratio=1.30 / aq-mode=1 / aq-strength=0.90 / cutree / zone-count=0 / no-strict-cbr / qg-size=32 / no-rc-grain / qpmax=69 / qpmin=0 / no-const-vbv / sar=0 / overscan=0 / videoformat=5 / range=0 / colorprim=9 / transfer=16 / colormatrix=9 / chromaloc=0 / display-window=0 / master-display=G(15000,30000)B(7500,3000)R(32000,16500)WP(15635,16450)L(10000000,0) / max-cll=711,617 / min-luma=0 / max-luma=1023 / log2-max-poc-lsb=8 / vui-timing-info / vui-hrd-info / slices=1 / no-opt-qp-pps / no-opt-ref-list-length-pps / no-multi-pass-opt-rps / scenecut-bias=0.05 / no-opt-cu-delta-qp / no-aq-motion / hdr / hdr-opt / no-dhdr10-opt / analysis-reuse-level=5 / scale-factor=0 / refine-intra=0 / refine-inter=0 / refine-mv=0 / no-limit-sao / ctu-info=0 / no-lowpass-dct / refine-mv-type=0 / copy-pic=1
&#13;
Default                                  : Yes
&#13;
Forced                                 : No
&#13;
Color range                              : Limited
&#13;
Color primaries                        : BT.2020
&#13;
Transfer characteristics               : PQ
&#13;
Matrix coefficients                      : BT.2020 non-constant
&#13;
Mastering display color primaries      : BT.709
&#13;
Mastering display luminance            : min: 0.0000 cd/m2, max: 1000 cd/m2
&#13;
Maximum Content Light Level            : 711 cd/m2
&#13;
Maximum Frame-Average Light Level      : 617 cd/m2
&#13;
Audio #1
&#13;
ID                                       : 2
&#13;
Format                                 : DTS
&#13;
Format/Info                              : Digital Theater Systems
&#13;
Format profile                           : X / MA / Core
&#13;
Codec ID                                 : A_DTS
&#13;
Duration                                 : 1 h 42 min
&#13;
Bit rate mode                            : Variable / Variable / Constant
&#13;
Bit rate                                 : 7 768 kb/s / 7 768 kb/s / 1 509 kb/s
&#13;
Channel(s)                               : Object Based / 8 channels / 6 channels
&#13;
Channel positions                        : Object Based / Front: L C R, Side: L R, Back: L R, LFE / Front: L C R, Side: L R, LFE
&#13;
Sampling rate                            :/ 48.0 kHz / 48.0 kHz
&#13;
Frame rate                               : 93.750 FPS (512 SPF)
&#13;
Bit depth                              :/ 24 bits / 24 bits
&#13;
Compression mode                         :/ Lossless / Lossy
&#13;
Stream size                              : 5.58 GiB (31%)
&#13;
Language                                 : Japanese
&#13;
Default                                  : Yes
&#13;
Forced                                 : No
&#13;
Audio #2
&#13;
ID                                       : 3
&#13;
Format                                 : FLAC
&#13;
Format/Info                              : Free Lossless Audio Codec
&#13;
Codec ID                                 : A_FLAC
&#13;
Duration                                 : 1 h 42 min
&#13;
Bit rate mode                            : Variable
&#13;
Bit rate                                 : 3 368 kb/s
&#13;
Channel(s)                               : 6 channels
&#13;
Channel positions                        : Front: L C R, Side: L R, LFE
&#13;
Sampling rate                            : 48.0 kHz
&#13;
Frame rate                               : 11.719 FPS (4096 SPF)
&#13;
Bit depth                              : 24 bits
&#13;
Delay relative to video                  : 13 ms
&#13;
Stream size                              : 2.42 GiB (13%)
&#13;
Writing library                        : libFLAC 1.3.2 (UTC 2017-01-01)
&#13;
Language                                 : English
&#13;
Default                                  : No
&#13;
Forced                                 : No
&#13;
Audio #3
&#13;
ID                                       : 4
&#13;
Format                                 : FLAC
&#13;
Format/Info                              : Free Lossless Audio Codec
&#13;
Codec ID                                 : A_FLAC
&#13;
Duration                                 : 1 h 42 min
&#13;
Bit rate mode                            : Variable
&#13;
Bit rate                                 : 3 525 kb/s
&#13;
Channel(s)                               : 6 channels
&#13;
Channel positions                        : Front: L C R, Side: L R, LFE
&#13;
Sampling rate                            : 48.0 kHz
&#13;
Frame rate                               : 11.719 FPS (4096 SPF)
&#13;
Bit depth                              : 24 bits
&#13;
Stream size                              : 2.53 GiB (14%)
&#13;
Writing library                        : libFLAC 1.3.2 (UTC 2017-01-01)
&#13;
Language                                 : Japanese
&#13;
Default                                  : No
&#13;
Forced                                 : No
&#13;
Audio #4
&#13;
ID                                       : 5
&#13;
Format                                 : FLAC
&#13;
Format/Info                              : Free Lossless Audio Codec
&#13;
Codec ID                                 : A_FLAC
&#13;
Duration                                 : 1 h 42 min
&#13;
Bit rate mode                            : Variable
&#13;
Bit rate                                 : 1 444 kb/s
&#13;
Channel(s)                               : 2 channels
&#13;
Channel positions                        : Front: L R
&#13;
Sampling rate                            : 48.0 kHz
&#13;
Frame rate                               : 11.719 FPS (4096 SPF)
&#13;
Bit depth                              : 24 bits
&#13;
Stream size                              : 1.04 GiB (6%)
&#13;
Writing library                        : libFLAC 1.3.2 (UTC 2017-01-01)
&#13;
Language                                 : Japanese
&#13;
Default                                  : No
&#13;
Forced                                 : No
&#13;
Audio #5
&#13;
ID                                       : 6
&#13;
Format                                 : DTS
&#13;
Format/Info                              : Digital Theater Systems
&#13;
Codec ID                                 : A_DTS
&#13;
Duration                                 : 1 h 42 min
&#13;
Bit rate mode                            : Constant
&#13;
Bit rate                                 : 768 kb/s
&#13;
Channel(s)                               : 2 channels
&#13;
Channel positions                        : Front: L R
&#13;
Sampling rate                            : 48.0 kHz
&#13;
Frame rate                               : 93.750 FPS (512 SPF)
&#13;
Bit depth                              : 24 bits
&#13;
Compression mode                         : Lossy
&#13;
Stream size                              : 565 MiB (3%)
&#13;
Title                                    : Commentary
&#13;
Language                                 : Japanese
&#13;
Default                                  : No
&#13;
Forced                                 : No</description>
      <content:encoded><![CDATA[<p><b>毛线小球: </b><br>
<span>能解码8M HEVC的最低配电视盒子是什么U？</span><br>
<span>插在电视机上播放本地硬盘里的4K视频</span><br>
<span>X86阵营的mini pc/电脑棒</span><br>
<span>Arm阵营的各种小盒子</span><br>
<span>最低得啥级别的CPU？</span><br>
<span>例如下面这个总码率25M，视频码率8M的片，以流畅播放为目标：</span><br>
<span>General</span><br>
<span>Unique ID                              : 129377315307886829166094992195091775292 (0x61552A2119FC0819B39DACA291D93F3C)</span><br>
<span>Complete name                            : F:\\.mkv</span><br>
<span>Format                                 : Matroska</span><br>
<span>Format version                           : Version 4 / Version 2</span><br>
<span>File size                              : 18.0 GiB</span><br>
<span>Duration                                 : 1 h 42 min</span><br>
<span>Overall bit rate mode                  : Variable</span><br>
<span>Overall bit rate                         : 25.0 Mb/s</span><br>
<span>Encoded date                           : UTC 2018-05-03 10:01:10</span><br>
<span>Writing application                      : mkvmerge v23.0.0 ('The Bride Said No') 64-bit</span><br>
<span>Writing library                        : libebml v1.3.6 + libmatroska v1.4.9</span><br>
<span>Video</span><br>
<span>ID                                       : 1</span><br>
<span>Format                                 : HEVC</span><br>
<span>Format/Info                              : High Efficiency Video Coding</span><br>
<span>Commercial name                        : HDR10</span><br>
<span>Format profile                           : Main 10@L5@Main</span><br>
<span>Codec ID                                 : V_MPEGH/ISO/HEVC</span><br>
<span>Duration                                 : 1 h 42 min</span><br>
<span>Bit rate                                 : 8 122 kb/s</span><br>
<span>Width                                    : 3 840 pixels</span><br>
<span>Height                                 : 2 076 pixels</span><br>
<span>Display aspect ratio                     : 1.85:1</span><br>
<span>Frame rate mode                        : Constant</span><br>
<span>Frame rate                               : 23.976 (24000/1001) FPS</span><br>
<span>Color space                              : YUV</span><br>
<span>Chroma subsampling                     : 4:2:0</span><br>
<span>Bit depth                              : 10 bits</span><br>
<span>Bits/(Pixel*Frame)                     : 0.042</span><br>
<span>Stream size                              : 5.83 GiB (32%)</span><br>
<span>Writing library                        : x265 2.7+2-22c127ff05d5: 10bit+8bit</span><br>
<span>Encoding settings                        : cpuid=1050111 / frame-threads=6 / numa-pools=48,0,0,0 / wpp / no-pmode / no-pme / no-psnr / no-ssim / log-level=2 / input-csp=1 / input-res=3840x2076 / interlace=0 / total-frames=0 / level-idc=0 / high-tier=1 / uhd-bd=0 / ref=5 / no-allow-non-conformance / repeat-headers / annexb / no-aud / no-hrd / info / hash=0 / no-temporal-layers / no-open-gop / min-keyint=1 / keyint=480 / gop-lookahead=0 / bframes=8 / b-adapt=2 / b-pyramid / bframe-bias=0 / rc-lookahead=48 / lookahead-slices=0 / scenecut=40 / radl=0 / no-intra-refresh / ctu=64 / min-cu-size=8 / no-rect / no-amp / max-tu-size=32 / tu-inter-depth=3 / tu-intra-depth=3 / limit-tu=4 / rdoq-level=2 / dynamic-rd=0.00 / no-ssim-rd / signhide / no-tskip / nr-intra=0 / nr-inter=0 / no-constrained-intra / no-strong-intra-smoothing / max-merge=4 / limit-refs=1 / limit-modes / me=3 / subme=4 / merange=57 / temporal-mvp / weightp / weightb / no-analyze-src-pics / deblock=-2:-2 / no-sao / no-sao-non-deblock / rd=6 / no-early-skip / rskip / no-fast-intra / no-tskip-fast / no-cu-lossless / b-intra / no-splitrd-skip / rdpenalty=0 / psy-rd=2.00 / psy-rdoq=1.00 / no-rd-refine / no-lossless / cbqpoffs=-3 / crqpoffs=-3 / rc=crf / crf=15.0 / qcomp=0.70 / qpstep=4 / stats-write=0 / stats-read=0 / ipratio=1.40 / pbratio=1.30 / aq-mode=1 / aq-strength=0.90 / cutree / zone-count=0 / no-strict-cbr / qg-size=32 / no-rc-grain / qpmax=69 / qpmin=0 / no-const-vbv / sar=0 / overscan=0 / videoformat=5 / range=0 / colorprim=9 / transfer=16 / colormatrix=9 / chromaloc=0 / display-window=0 / master-display=G(15000,30000)B(7500,3000)R(32000,16500)WP(15635,16450)L(10000000,0) / max-cll=711,617 / min-luma=0 / max-luma=1023 / log2-max-poc-lsb=8 / vui-timing-info / vui-hrd-info / slices=1 / no-opt-qp-pps / no-opt-ref-list-length-pps / no-multi-pass-opt-rps / scenecut-bias=0.05 / no-opt-cu-delta-qp / no-aq-motion / hdr / hdr-opt / no-dhdr10-opt / analysis-reuse-level=5 / scale-factor=0 / refine-intra=0 / refine-inter=0 / refine-mv=0 / no-limit-sao / ctu-info=0 / no-lowpass-dct / refine-mv-type=0 / copy-pic=1</span><br>
<span>Default                                  : Yes</span><br>
<span>Forced                                 : No</span><br>
<span>Color range                              : Limited</span><br>
<span>Color primaries                        : BT.2020</span><br>
<span>Transfer characteristics               : PQ</span><br>
<span>Matrix coefficients                      : BT.2020 non-constant</span><br>
<span>Mastering display color primaries      : BT.709</span><br>
<span>Mastering display luminance            : min: 0.0000 cd/m2, max: 1000 cd/m2</span><br>
<span>Maximum Content Light Level            : 711 cd/m2</span><br>
<span>Maximum Frame-Average Light Level      : 617 cd/m2</span><br>
<span>Audio #1</span><br>
<span>ID                                       : 2</span><br>
<span>Format                                 : DTS</span><br>
<span>Format/Info                              : Digital Theater Systems</span><br>
<span>Format profile                           : X / MA / Core</span><br>
<span>Codec ID                                 : A_DTS</span><br>
<span>Duration                                 : 1 h 42 min</span><br>
<span>Bit rate mode                            : Variable / Variable / Constant</span><br>
<span>Bit rate                                 : 7 768 kb/s / 7 768 kb/s / 1 509 kb/s</span><br>
<span>Channel(s)                               : Object Based / 8 channels / 6 channels</span><br>
<span>Channel positions                        : Object Based / Front: L C R, Side: L R, Back: L R, LFE / Front: L C R, Side: L R, LFE</span><br>
<span>Sampling rate                            :/ 48.0 kHz / 48.0 kHz</span><br>
<span>Frame rate                               : 93.750 FPS (512 SPF)</span><br>
<span>Bit depth                              :/ 24 bits / 24 bits</span><br>
<span>Compression mode                         :/ Lossless / Lossy</span><br>
<span>Stream size                              : 5.58 GiB (31%)</span><br>
<span>Language                                 : Japanese</span><br>
<span>Default                                  : Yes</span><br>
<span>Forced                                 : No</span><br>
<span>Audio #2</span><br>
<span>ID                                       : 3</span><br>
<span>Format                                 : FLAC</span><br>
<span>Format/Info                              : Free Lossless Audio Codec</span><br>
<span>Codec ID                                 : A_FLAC</span><br>
<span>Duration                                 : 1 h 42 min</span><br>
<span>Bit rate mode                            : Variable</span><br>
<span>Bit rate                                 : 3 368 kb/s</span><br>
<span>Channel(s)                               : 6 channels</span><br>
<span>Channel positions                        : Front: L C R, Side: L R, LFE</span><br>
<span>Sampling rate                            : 48.0 kHz</span><br>
<span>Frame rate                               : 11.719 FPS (4096 SPF)</span><br>
<span>Bit depth                              : 24 bits</span><br>
<span>Delay relative to video                  : 13 ms</span><br>
<span>Stream size                              : 2.42 GiB (13%)</span><br>
<span>Writing library                        : libFLAC 1.3.2 (UTC 2017-01-01)</span><br>
<span>Language                                 : English</span><br>
<span>Default                                  : No</span><br>
<span>Forced                                 : No</span><br>
<span>Audio #3</span><br>
<span>ID                                       : 4</span><br>
<span>Format                                 : FLAC</span><br>
<span>Format/Info                              : Free Lossless Audio Codec</span><br>
<span>Codec ID                                 : A_FLAC</span><br>
<span>Duration                                 : 1 h 42 min</span><br>
<span>Bit rate mode                            : Variable</span><br>
<span>Bit rate                                 : 3 525 kb/s</span><br>
<span>Channel(s)                               : 6 channels</span><br>
<span>Channel positions                        : Front: L C R, Side: L R, LFE</span><br>
<span>Sampling rate                            : 48.0 kHz</span><br>
<span>Frame rate                               : 11.719 FPS (4096 SPF)</span><br>
<span>Bit depth                              : 24 bits</span><br>
<span>Stream size                              : 2.53 GiB (14%)</span><br>
<span>Writing library                        : libFLAC 1.3.2 (UTC 2017-01-01)</span><br>
<span>Language                                 : Japanese</span><br>
<span>Default                                  : No</span><br>
<span>Forced                                 : No</span><br>
<span>Audio #4</span><br>
<span>ID                                       : 5</span><br>
<span>Format                                 : FLAC</span><br>
<span>Format/Info                              : Free Lossless Audio Codec</span><br>
<span>Codec ID                                 : A_FLAC</span><br>
<span>Duration                                 : 1 h 42 min</span><br>
<span>Bit rate mode                            : Variable</span><br>
<span>Bit rate                                 : 1 444 kb/s</span><br>
<span>Channel(s)                               : 2 channels</span><br>
<span>Channel positions                        : Front: L R</span><br>
<span>Sampling rate                            : 48.0 kHz</span><br>
<span>Frame rate                               : 11.719 FPS (4096 SPF)</span><br>
<span>Bit depth                              : 24 bits</span><br>
<span>Stream size                              : 1.04 GiB (6%)</span><br>
<span>Writing library                        : libFLAC 1.3.2 (UTC 2017-01-01)</span><br>
<span>Language                                 : Japanese</span><br>
<span>Default                                  : No</span><br>
<span>Forced                                 : No</span><br>
<span>Audio #5</span><br>
<span>ID                                       : 6</span><br>
<span>Format                                 : DTS</span><br>
<span>Format/Info                              : Digital Theater Systems</span><br>
<span>Codec ID                                 : A_DTS</span><br>
<span>Duration                                 : 1 h 42 min</span><br>
<span>Bit rate mode                            : Constant</span><br>
<span>Bit rate                                 : 768 kb/s</span><br>
<span>Channel(s)                               : 2 channels</span><br>
<span>Channel positions                        : Front: L R</span><br>
<span>Sampling rate                            : 48.0 kHz</span><br>
<span>Frame rate                               : 93.750 FPS (512 SPF)</span><br>
<span>Bit depth                              : 24 bits</span><br>
<span>Compression mode                         : Lossy</span><br>
<span>Stream size                              : 565 MiB (3%)</span><br>
<span>Title                                    : Commentary</span><br>
<span>Language                                 : Japanese</span><br>
<span>Default                                  : No</span><br>
<span>Forced                                 : No</span><br>
</p><p><b>两个路人: </b><br>
<span>https://bbs.saraba1st.com/2b/thread-1827646-1-1.html</span><br>
<span>此帖终结</span><br>
</p><p><b>毛线小球: </b><br>
<span>X1S和Shield可以处理网上那些奇奇怪怪的编码方式和外挂字幕吗？</span><br>
<span>特别是某些字幕需要手动同步或调整字体的情况</span><br>
</p><p><b>Neho: </b><br>
<span>两个路人 发表于 2019-5-18 18:25</span><br>
<span>https://bbs.saraba1st.com/2b/thread-1827646-1-1.html</span><br>
<span>此帖终结</span><br>
<span>别终结啊…</span><br>
<span>原贴根本就没给出终极解决方案啊</span><br>
</p><p><b>Ichthy: </b><br>
<span>眼瞎看成能解码8k 我还想说现在用户这么牛逼</span><br>
</p><p><b>系统杀手: </b><br>
<span>还有hdr…… 目测要zidoo的安卓盒子。 </span><br>
<span>实际上电视装kodi有时候也够用的</span><br>
</p>]]></content:encoded>
      <guid isPermaLink="false">1832499[0-50]</guid>
    </item>
  </channel>
</rss>
